<?xml version="1.0" standalone="no"?>
<!DOCTYPE svg PUBLIC "-//W3C//DTD SVG 20010904//EN"
 "http://www.w3.org/TR/2001/REC-SVG-20010904/DTD/svg10.dtd">
<svg version="1.0" xmlns="http://www.w3.org/2000/svg"
 width="1280.000000pt" height="1740.000000pt" viewBox="0 0 1280.000000 1740.000000"
 preserveAspectRatio="xMidYMid meet">
<metadata>
Created by potrace 1.16, written by Peter Selinger 2001-2019
</metadata>
<g transform="translate(0.000000,1740.000000) scale(0.100000,-0.100000)"
fill="#000000" stroke="none">
<path d="M2670 17331 c-118 -4 -246 -13 -285 -19 -38 -7 -92 -15 -119 -18 -34
-4 -55 -13 -72 -31 -27 -29 -53 -32 -129 -13 -43 11 -57 10 -102 -5 -48 -16
-62 -17 -157 -5 -107 13 -123 12 -191 -13 -23 -9 -98 -18 -180 -22 -77 -3
-148 -9 -157 -11 -19 -6 -25 -34 -8 -34 19 0 10 -17 -35 -63 -25 -26 -45 -53
-45 -61 0 -22 -38 -49 -69 -49 -16 0 -46 8 -67 18 -128 60 -304 61 -281 0 8
-20 -39 -55 -74 -55 -16 0 -46 9 -66 20 -45 24 -91 26 -99 5 -9 -22 -57 -18
-90 8 -38 29 -107 28 -241 -7 -56 -14 -124 -26 -152 -26 l-51 0 0 -969 0 -969
46 -38 c28 -23 54 -56 66 -83 11 -25 40 -91 65 -146 49 -106 53 -134 39 -247
-18 -142 23 -203 157 -232 36 -8 36 -40 0 -92 -14 -21 -37 -54 -50 -73 -74
-108 -38 -196 111 -269 37 -18 70 -40 73 -49 4 -10 -15 -57 -47 -119 -58 -114
-56 -92 -31 -315 11 -100 17 -114 81 -189 57 -67 64 -80 80 -150 15 -65 64
-160 130 -250 26 -36 65 -100 85 -142 44 -89 194 -265 259 -303 23 -13 83 -35
134 -50 51 -14 136 -48 189 -75 52 -27 115 -52 140 -56 95 -14 180 41 227 145
31 70 66 200 66 247 0 46 16 82 55 125 59 66 84 111 129 242 58 166 73 189
147 226 62 31 99 40 264 66 163 25 273 88 357 204 50 70 133 156 173 181 33
20 230 67 420 99 153 25 241 56 363 124 53 30 130 71 170 92 85 44 153 113
197 201 25 50 30 70 30 135 0 70 -3 80 -39 138 -42 69 -43 82 -8 166 11 28 26
65 33 83 8 23 30 46 64 69 50 33 69 58 96 131 7 20 28 44 50 59 60 40 72 65
64 136 -4 34 -12 67 -17 74 -6 8 0 25 18 53 20 30 29 58 32 98 3 52 0 63 -38
125 -22 37 -38 72 -35 77 3 5 30 16 59 24 64 19 106 62 106 108 0 45 -43 112
-93 145 -26 18 -46 41 -53 61 -12 39 -34 56 -99 74 -87 26 -86 52 6 127 30 24
71 67 91 96 26 36 55 62 95 83 43 23 88 64 173 157 125 136 124 136 339 214
159 58 209 104 197 180 -4 20 -6 44 -7 54 -1 57 -300 137 -454 122 -83 -8
-118 -22 -165 -65 -57 -53 -86 -61 -181 -50 -56 7 -86 14 -91 25 -12 21 -44
19 -88 -6 -45 -26 -63 -21 -90 23 -25 41 -25 64 0 127 17 44 18 56 7 100 -11
47 -15 52 -61 72 -28 12 -87 24 -137 29 -61 6 -101 15 -129 31 -22 12 -40 26
-40 30 0 4 -26 17 -57 29 -32 12 -65 28 -74 36 -12 11 -52 17 -140 21 -93 4
-143 12 -199 31 -88 29 -226 34 -590 23z"/>
<path d="M12727 16694 c-3 -3 -3 -12 0 -20 4 -11 -6 -14 -46 -14 -43 0 -51 -3
-51 -19 0 -17 -27 -41 -75 -66 -15 -8 -20 -23 -23 -69 -4 -69 2 -78 79 -117
39 -19 67 -43 87 -71 33 -48 58 -72 85 -81 16 -6 17 9 17 228 l0 235 -33 0
c-19 0 -36 -3 -40 -6z"/>
<path d="M12023 16594 c-18 -9 -33 -21 -33 -25 0 -10 -31 -24 -74 -35 -17 -4
-25 -1 -28 14 -9 34 -110 43 -194 17 -27 -8 -76 -17 -109 -21 -69 -8 -89 -19
-76 -43 5 -9 6 -30 4 -47 -9 -61 29 -94 128 -108 26 -4 69 -22 100 -42 66 -43
86 -48 154 -41 66 7 307 125 332 164 13 20 14 35 7 81 -9 54 -11 58 -54 80
-52 26 -112 28 -157 6z"/>
<path d="M8664 16485 c6 -16 2 -17 -31 -13 -26 4 -43 1 -52 -9 -10 -11 -16
-12 -24 -4 -19 19 -65 13 -72 -9 -3 -11 -10 -20 -15 -20 -4 0 -10 -9 -13 -19
-6 -25 -64 -61 -97 -61 -14 0 -31 9 -38 20 -18 29 -52 26 -52 -4 0 -35 -65
-60 -110 -43 -27 10 -33 10 -44 -6 -17 -22 -21 -22 -47 4 -17 17 -28 20 -58
14 -20 -3 -53 -6 -73 -5 -20 0 -39 -4 -43 -10 -4 -7 -25 -8 -55 -4 -40 5 -54
3 -78 -15 -16 -11 -32 -18 -35 -15 -6 7 -51 -62 -60 -91 -3 -11 -8 -76 -12
-143 l-7 -124 44 -41 c34 -33 63 -48 131 -70 104 -34 135 -61 160 -141 23 -70
65 -119 166 -190 97 -69 144 -83 201 -60 34 14 51 31 87 88 25 39 62 89 83
111 21 22 58 72 83 112 48 76 69 93 98 86 25 -7 43 -37 63 -105 20 -69 45 -91
140 -120 122 -37 189 -26 264 46 48 45 62 76 59 137 -3 69 -10 79 -57 79 -49
0 -87 17 -93 41 -3 12 -14 19 -30 19 -30 0 -100 73 -95 98 3 15 18 17 108 18
169 2 288 44 398 140 75 66 88 94 71 161 -16 71 -35 83 -125 83 -45 0 -95 8
-135 21 -51 16 -78 19 -136 14 -66 -5 -72 -4 -78 15 -10 30 -69 28 -90 -4 -9
-13 -25 -26 -36 -29 -34 -9 -126 10 -157 33 -16 12 -48 24 -72 27 -39 5 -43 4
-36 -12z"/>
<path d="M12348 16439 c-35 -13 -36 -37 -4 -45 21 -5 23 -9 14 -24 -15 -23 -4
-48 26 -62 37 -16 80 13 74 51 -2 15 2 33 10 40 7 7 12 20 10 29 -4 20 -87 27
-130 11z"/>
<path d="M12754 15213 c-3 -10 -10 -25 -15 -33 -5 -8 -21 -35 -35 -60 -63
-106 -100 -153 -131 -166 -17 -8 -38 -24 -45 -38 -7 -13 -25 -45 -40 -73 -32
-59 -101 -131 -131 -135 -14 -2 -21 -9 -20 -21 2 -35 -61 -131 -101 -152 -39
-21 -76 -84 -76 -132 0 -58 56 -116 180 -187 36 -20 85 -50 110 -66 57 -37
141 -59 258 -67 l92 -6 0 137 c0 126 -2 139 -22 167 -29 38 -28 95 1 142 20
33 21 45 21 371 0 331 0 336 -20 336 -11 0 -23 -8 -26 -17z"/>
<path d="M9290 14330 c-8 -15 -21 -20 -52 -20 -23 0 -49 -7 -58 -15 -10 -9
-34 -19 -54 -22 -29 -4 -36 -2 -36 11 0 23 -42 20 -58 -4 -9 -16 -23 -20 -61
-20 -44 0 -50 -3 -55 -25 -3 -13 -26 -38 -50 -54 -35 -25 -50 -29 -80 -24 -27
4 -37 2 -42 -11 -8 -21 -43 -21 -59 1 -11 15 -18 16 -70 3 -43 -10 -59 -19
-65 -36 -11 -28 -77 -74 -106 -74 -11 0 -31 -12 -45 -26 -39 -41 -89 -68 -102
-55 -18 18 -37 13 -64 -20 -15 -17 -43 -42 -64 -55 -21 -13 -53 -43 -71 -67
-21 -29 -53 -53 -93 -73 -34 -16 -61 -37 -63 -46 -5 -25 29 -23 61 2 l25 20
-11 -29 c-9 -24 -7 -37 7 -69 16 -35 16 -42 3 -75 -20 -48 -91 -150 -119 -174
-13 -10 -41 -52 -62 -93 -57 -109 -73 -130 -102 -130 -19 0 -24 -5 -22 -18 4
-24 -56 -95 -137 -162 -54 -45 -73 -55 -103 -55 -31 0 -38 -4 -40 -22 -4 -26
-64 -76 -116 -98 -20 -9 -36 -20 -36 -25 0 -8 -103 -80 -115 -80 -15 0 -110
-83 -133 -116 -26 -37 -27 -46 -30 -174 -8 -313 64 -491 221 -549 112 -41 198
-25 309 57 60 44 101 66 141 76 25 6 27 4 27 -26 0 -19 29 -97 65 -177 66
-149 69 -171 24 -171 -26 0 -46 36 -62 111 -8 36 -21 79 -30 95 -9 16 -18 41
-22 57 -4 22 -11 27 -35 27 -27 0 -70 -29 -70 -48 0 -13 -93 -57 -116 -54 -17
2 -27 -5 -38 -26 -8 -15 -22 -35 -32 -43 -31 -25 -54 -91 -54 -154 0 -64 28
-146 70 -205 22 -31 22 -33 7 -66 -14 -29 -22 -34 -52 -34 -44 0 -75 -15 -75
-37 0 -11 -7 -14 -25 -11 -45 9 -127 -10 -154 -36 -14 -13 -41 -30 -58 -38
-39 -16 -122 -111 -160 -184 -21 -40 -37 -57 -70 -73 -24 -12 -54 -21 -66 -21
-12 0 -32 -7 -44 -15 -22 -16 -22 -16 2 50 31 82 31 113 1 174 -18 35 -34 51
-58 60 -58 22 -62 26 -105 106 -24 43 -60 99 -81 124 -21 25 -51 66 -67 91
-15 25 -42 63 -60 85 -43 55 -46 64 -30 132 19 78 18 99 -4 147 -11 23 -22 49
-25 59 -3 11 -16 17 -35 17 -31 0 -35 4 -86 83 -20 31 -23 42 -14 58 6 11 8
27 5 35 -8 22 -44 17 -57 -8 -18 -35 -29 -39 -100 -32 -65 6 -68 5 -84 -20
-19 -29 -92 -76 -118 -76 -13 0 -14 5 -4 30 17 44 -3 61 -40 34 -30 -23 -72
-96 -57 -101 5 -2 8 -22 6 -46 -2 -23 4 -71 13 -107 26 -100 31 -190 11 -227
-19 -38 -43 -47 -106 -38 -57 8 -90 -6 -91 -38 -1 -28 -74 -92 -102 -89 -45 4
-69 -7 -65 -32 1 -13 -4 -31 -12 -41 -11 -14 -15 -46 -16 -129 0 -78 -5 -124
-17 -155 -9 -24 -17 -55 -17 -70 0 -68 80 -130 168 -131 70 0 295 92 350 143
50 48 61 120 40 258 -2 9 14 31 36 48 46 37 103 42 129 13 23 -25 21 -42 -3
-42 -11 0 -23 -8 -26 -17 -6 -19 -11 -28 -44 -78 -11 -16 -25 -48 -31 -70 -5
-22 -15 -50 -21 -61 -5 -12 -9 -44 -8 -70 4 -94 2 -159 -5 -215 -7 -53 -6 -57
20 -77 38 -30 125 -29 234 3 109 32 141 33 141 3 0 -13 -15 -41 -34 -63 l-33
-39 -105 -2 c-58 -1 -115 -7 -126 -13 -26 -14 -62 -92 -62 -133 0 -75 49 -123
175 -169 74 -26 164 -114 191 -185 16 -42 16 -56 5 -148 -7 -55 -16 -104 -20
-109 -4 -4 -31 -3 -60 3 -30 5 -152 10 -273 10 -193 0 -225 2 -276 20 l-57 20
-25 -20 c-25 -20 -38 -27 -92 -49 -56 -22 -78 -135 -40 -211 15 -31 18 -49 12
-65 -5 -13 -14 -59 -20 -104 -6 -44 -20 -106 -31 -138 -25 -71 -27 -145 -4
-198 10 -22 26 -71 36 -108 23 -89 39 -111 93 -132 40 -15 50 -16 88 -4 l43
14 62 -50 c61 -49 61 -50 43 -70 -10 -11 -35 -49 -55 -85 -57 -98 -95 -133
-166 -149 -38 -9 -143 -132 -185 -216 -29 -60 -37 -88 -43 -162 -6 -66 -14
-100 -30 -126 -30 -48 -152 -146 -198 -159 -71 -19 -255 -241 -353 -426 -31
-59 -80 -145 -109 -192 -62 -101 -86 -175 -73 -222 5 -20 5 -44 0 -60 -7 -19
-4 -46 7 -90 41 -153 47 -192 40 -278 -4 -47 -9 -106 -10 -132 -1 -26 -12 -62
-23 -80 -23 -38 -42 -101 -42 -142 0 -41 78 -267 100 -291 11 -11 30 -41 43
-65 13 -25 42 -58 64 -75 23 -17 43 -41 46 -57 9 -38 84 -126 139 -162 38 -25
47 -37 48 -61 1 -80 95 -198 177 -223 22 -7 48 -24 61 -41 26 -36 194 -157
277 -201 45 -24 72 -31 114 -31 31 0 82 -2 113 -5 40 -4 85 1 149 16 50 11
134 25 187 30 54 4 102 9 107 11 6 2 22 -5 37 -15 40 -27 97 -31 164 -11 89
25 215 88 248 124 17 17 36 31 44 31 7 0 23 5 35 12 12 6 41 10 64 9 23 -1 51
3 63 9 14 8 25 8 33 1 7 -5 39 -19 72 -32 79 -29 102 -46 150 -113 54 -74 94
-96 181 -96 38 0 95 6 127 14 l59 14 41 -45 c27 -28 49 -65 63 -106 21 -61 21
-62 2 -94 -13 -21 -19 -48 -17 -75 1 -31 -8 -62 -32 -113 -30 -61 -34 -80 -34
-146 0 -75 1 -78 47 -146 65 -94 151 -188 188 -203 16 -7 30 -19 30 -26 0 -8
18 -34 40 -58 22 -24 40 -49 40 -57 0 -8 10 -34 22 -59 11 -25 20 -56 19 -70
-1 -14 10 -62 24 -105 14 -44 30 -124 35 -178 5 -54 19 -133 31 -175 26 -92
20 -125 -39 -223 -43 -71 -55 -102 -104 -264 -25 -84 -32 -126 -31 -180 1 -38
1 -99 2 -135 0 -59 5 -76 60 -185 34 -66 90 -186 126 -267 63 -141 66 -153 76
-259 5 -61 11 -114 13 -118 3 -3 16 -73 30 -154 31 -174 58 -241 128 -309 38
-37 52 -60 63 -103 8 -30 40 -110 71 -178 54 -115 57 -128 64 -228 12 -160 57
-241 162 -293 70 -35 124 -33 283 8 101 26 157 35 250 39 104 4 134 9 229 41
137 46 203 81 288 154 81 69 152 149 266 302 47 63 110 141 139 173 29 32 63
77 74 98 24 48 34 124 21 159 -8 20 -4 36 18 80 33 65 47 79 120 115 87 43
120 73 148 134 23 49 26 69 26 161 0 78 -6 125 -22 183 -12 42 -22 96 -22 120
0 41 4 46 112 150 102 97 125 113 228 164 135 66 218 141 265 236 l28 58 -10
224 c-9 189 -13 230 -31 266 -11 24 -22 59 -26 77 -3 18 -19 64 -36 103 -24
54 -33 93 -41 177 -5 59 -14 125 -19 147 -5 22 -10 71 -10 109 0 59 4 72 26
99 14 16 38 55 54 87 15 31 55 86 88 122 33 37 63 75 66 86 4 11 19 23 34 27
16 4 81 62 162 143 87 88 169 160 229 201 52 35 125 94 164 130 100 94 229
260 273 349 20 43 72 136 115 207 96 159 131 265 133 397 1 77 -2 89 -21 110
-13 13 -23 33 -23 44 0 46 -46 58 -82 20 -34 -35 -109 -56 -243 -68 -78 -6
-136 -17 -165 -30 -25 -11 -70 -22 -100 -25 -30 -3 -64 -12 -75 -19 -27 -19
-71 -17 -122 4 -48 19 -55 30 -47 70 5 26 9 28 57 30 73 2 537 159 609 206 13
8 70 31 127 51 119 42 169 72 235 146 45 50 50 53 102 55 86 5 133 22 219 78
44 29 97 64 117 77 l38 24 0 3653 0 3652 -51 0 c-29 0 -71 -9 -99 -21 -44 -19
-50 -19 -76 -5 -56 30 -65 42 -58 71 7 28 7 28 -35 22 -23 -3 -75 -21 -115
-41 -40 -20 -86 -36 -102 -36 -16 0 -48 -5 -72 -10 -48 -12 -82 0 -82 28 0 9
-6 40 -12 69 -12 50 -16 55 -62 78 -95 48 -172 26 -215 -59 -33 -67 -25 -106
34 -166 25 -25 45 -50 45 -56 0 -18 -45 -54 -68 -54 -12 0 -30 -9 -40 -21 -9
-11 -34 -29 -55 -40 l-38 -20 6 33 c3 18 0 52 -7 76 -15 50 -82 136 -119 152
-14 6 -65 10 -115 8 -49 -1 -106 2 -126 6 -35 8 -38 7 -38 -13 0 -12 7 -24 15
-27 12 -5 12 -9 0 -27 -9 -15 -16 -73 -20 -174 -5 -93 -12 -156 -19 -161 -6
-5 -40 -6 -76 -3 l-65 6 -15 60 c-9 33 -24 74 -33 91 -25 48 -125 131 -187
155 -30 12 -62 28 -71 36 -8 7 -22 13 -30 13 -8 0 -55 23 -104 52 -160 91
-251 131 -309 133 -29 1 -63 8 -75 15 -13 6 -37 10 -55 7 -40 -6 -96 21 -96
45 0 10 -6 20 -12 22 -7 2 -29 9 -48 16 -64 23 -84 23 -104 1 -27 -29 -46 -27
-46 7 0 15 -6 46 -13 69 -16 53 -81 104 -144 111 -23 2 -48 11 -54 18 -6 8
-26 14 -43 14 -19 0 -47 11 -66 25 -44 32 -91 33 -125 1 -20 -19 -35 -23 -72
-21 -30 1 -48 7 -51 16 -12 34 -75 41 -92 9z m1283 -1101 c54 -16 85 -19 136
-15 74 7 114 -6 119 -39 7 -59 -52 -63 -156 -11 -85 43 -105 44 -129 10 -42
-61 -88 -105 -104 -99 -23 9 -39 49 -39 100 0 79 44 93 173 54z m-1439 -61
c37 -53 5 -117 -96 -194 -35 -26 -86 -67 -114 -91 -28 -24 -55 -43 -60 -43
-17 0 -84 -102 -95 -143 -8 -30 -8 -61 0 -114 6 -41 11 -116 11 -167 0 -80 3
-98 23 -127 29 -43 107 -90 197 -119 70 -22 70 -23 48 -39 -13 -9 -40 -16 -61
-17 -45 0 -66 -16 -49 -37 9 -11 6 -19 -13 -37 -30 -28 -49 -82 -42 -119 5
-24 -1 -33 -38 -64 -25 -21 -55 -60 -70 -91 -23 -46 -26 -64 -21 -108 7 -72 7
-65 -1 -138 l-8 -65 -36 3 c-38 3 -69 -16 -69 -44 0 -8 -8 -14 -19 -14 -32 0
-81 22 -81 36 0 36 -132 7 -259 -56 -42 -20 -97 -41 -123 -44 -32 -5 -48 -12
-48 -21 0 -10 -14 -4 -43 18 -51 37 -51 61 -2 81 17 8 54 29 81 48 27 19 78
45 113 58 66 24 116 66 174 143 23 30 34 37 63 37 49 0 89 23 104 61 12 28 11
36 -3 61 -12 22 -14 35 -7 48 18 34 12 50 -18 50 -29 0 -63 -29 -75 -62 -8
-24 -44 -23 -52 1 -9 30 11 67 74 135 74 80 101 131 101 192 0 57 -33 119 -83
157 -19 14 -42 43 -52 63 -15 32 -16 44 -6 89 23 103 100 193 249 289 54 35
113 81 133 103 36 39 44 58 69 154 16 64 46 96 115 124 73 30 70 30 89 3z
m1469 -3059 c-3 -11 -18 -32 -33 -47 -15 -16 -33 -49 -40 -78 -12 -48 -12 -54
10 -92 17 -30 49 -58 114 -102 50 -33 109 -74 131 -90 22 -16 60 -34 85 -41
48 -13 87 -49 120 -111 11 -21 20 -40 20 -43 0 -16 -69 -29 -193 -35 -159 -9
-197 -2 -322 55 -95 44 -181 65 -268 65 -103 0 -139 -10 -252 -68 -88 -46 -92
-47 -181 -47 -88 0 -93 1 -143 35 -28 19 -51 41 -51 47 0 7 11 42 25 79 14 36
25 74 25 82 0 9 13 30 29 47 36 37 101 143 101 165 0 23 137 140 163 140 35 0
62 -25 97 -87 100 -179 173 -206 336 -128 82 40 128 86 120 120 -4 17 -1 24
14 28 28 7 25 34 -7 50 l-27 14 25 14 c18 10 85 41 106 48 0 1 -1 -8 -4 -20z
m1625 -10 c17 -6 33 -17 36 -24 7 -19 -20 -45 -48 -45 -42 0 -81 -21 -101 -53
-11 -18 -32 -38 -47 -44 -20 -10 -27 -23 -33 -61 -5 -26 -7 -58 -6 -72 4 -43
72 -153 130 -209 31 -30 70 -75 86 -100 17 -25 44 -55 62 -67 35 -23 36 -13
-12 -101 -25 -46 -18 -87 30 -178 25 -48 53 -120 63 -161 l19 -74 -43 -20
c-53 -26 -130 -28 -175 -5 -19 10 -55 33 -81 52 -26 19 -63 39 -81 44 -18 5
-45 22 -60 37 l-28 29 35 57 c59 98 70 200 30 278 -9 18 -38 54 -64 80 -57 57
-111 165 -147 295 -33 114 -27 133 66 207 36 30 75 63 85 75 11 11 26 21 35
21 9 0 50 11 91 25 84 27 113 30 158 14z m-4210 -182 c19 -42 135 -189 176
-222 52 -42 136 -85 169 -85 13 0 30 -7 37 -14 6 -8 28 -20 47 -27 20 -6 51
-27 69 -45 33 -32 33 -34 33 -122 -1 -71 3 -96 19 -129 20 -39 74 -93 93 -93
5 0 9 -7 9 -16 0 -9 20 -57 45 -105 25 -49 54 -114 66 -143 21 -57 78 -118
125 -136 28 -11 94 -13 118 -4 18 7 127 148 151 194 8 16 15 41 15 55 0 27
-42 119 -60 130 -13 8 -13 51 0 76 14 25 78 57 135 68 l45 8 0 -37 c0 -21 9
-66 19 -101 11 -35 25 -93 31 -128 23 -129 60 -177 205 -264 141 -84 184 -93
275 -57 62 24 82 25 143 3 52 -19 51 -15 31 -96 -14 -58 39 -117 105 -117 72
0 144 58 157 126 5 28 2 40 -15 58 l-22 23 23 7 c29 7 76 7 104 0 20 -5 21 -9
12 -47 -5 -23 -6 -58 -3 -78 4 -24 2 -40 -5 -44 -19 -12 -50 -87 -50 -121 0
-20 -11 -46 -31 -70 -18 -22 -45 -66 -60 -100 l-29 -60 -83 2 c-49 1 -97 8
-121 18 -53 22 -148 20 -216 -5 -120 -44 -121 -44 -222 -11 -51 16 -122 33
-158 36 -89 10 -142 24 -162 46 -10 10 -39 21 -70 25 -64 8 -129 35 -171 71
-29 24 -37 26 -106 22 -133 -7 -244 -83 -275 -188 -27 -92 -44 -97 -142 -50
-34 17 -85 34 -112 39 -56 9 -96 34 -145 91 -48 56 -177 100 -295 100 -81 0
-85 1 -113 31 -38 40 -44 69 -29 125 16 57 7 230 -14 277 -8 17 -16 43 -18 57
-2 20 -9 25 -33 25 -18 1 -40 10 -53 23 -30 30 -107 30 -165 1 -39 -20 -46
-21 -105 -9 -71 14 -158 8 -225 -16 -30 -11 -61 -13 -107 -9 -99 9 -435 -30
-474 -55 -30 -19 -63 -36 -186 -93 -30 -15 -73 -40 -95 -57 -40 -30 -40 -30
-89 -15 -27 8 -81 15 -120 16 -100 1 -126 12 -61 27 28 6 85 16 129 22 187 24
346 177 391 376 29 122 65 167 185 225 105 50 166 121 158 181 -4 23 2 34 24
54 41 34 72 39 150 26 38 -7 89 -12 114 -12 54 0 131 36 166 78 19 23 41 33
91 45 105 24 112 16 45 -54 -64 -67 -84 -115 -68 -168 5 -18 14 -39 21 -47 9
-11 7 -14 -15 -14 -21 0 -26 -5 -26 -24 0 -14 -4 -28 -10 -31 -34 -21 -30
-174 7 -253 48 -101 179 -89 232 21 27 55 29 167 5 212 -46 84 -45 80 -28 114
22 45 14 124 -15 155 -14 15 -21 33 -19 48 3 19 11 11 55 -53 61 -90 184 -197
317 -276 171 -103 226 -156 226 -220 0 -50 -20 -58 -140 -58 -67 0 -112 -4
-121 -12 -20 -16 -42 -98 -35 -126 10 -41 43 -73 115 -111 93 -48 145 -55 190
-24 18 12 47 48 64 78 16 30 55 82 87 115 31 33 67 81 80 105 12 25 47 71 76
102 58 61 67 94 40 146 -19 37 -47 60 -141 117 -44 27 -93 62 -109 77 -16 15
-37 28 -47 28 -28 0 -85 56 -121 118 -18 31 -49 75 -68 97 -57 62 -70 87 -70
126 0 31 3 36 19 32 10 -2 23 -14 29 -26z m3913 -2007 c47 -13 77 -44 128
-130 49 -83 85 -114 211 -186 124 -71 191 -95 267 -97 l62 -2 -22 -25 c-98
-113 -127 -130 -224 -130 -45 0 -76 -5 -90 -15 -28 -19 -35 -7 -23 36 12 40 5
80 -19 111 -10 13 -21 35 -25 50 -10 41 -53 49 -81 16 l-22 -26 -22 53 c-12
29 -59 97 -107 154 -79 94 -86 107 -89 152 -4 54 -2 55 56 39z m-1437 -545
c26 -49 74 -121 107 -158 74 -86 94 -124 119 -233 24 -104 43 -137 126 -224
35 -37 87 -109 119 -165 62 -107 107 -178 135 -210 14 -16 19 -43 22 -127 l3
-107 -50 43 c-27 24 -72 55 -98 71 -59 34 -84 67 -136 175 -23 47 -59 108 -81
135 -69 86 -107 177 -123 291 -9 60 -24 124 -39 155 -24 53 -105 144 -137 154
-13 4 -17 19 -18 63 -1 50 -11 76 -82 218 -58 115 -81 173 -81 199 0 36 1 35
83 -77 46 -62 105 -153 131 -203z"/>
<path d="M6824 9302 c-12 -1 -32 -14 -44 -27 -19 -20 -21 -27 -10 -40 7 -8 9
-22 6 -31 -9 -24 20 -64 48 -64 36 0 53 28 54 93 1 61 -11 77 -54 69z"/>
<path d="M9068 8749 c-21 -12 -24 -49 -4 -49 12 0 12 -5 3 -30 -16 -41 14 -79
79 -103 109 -38 231 15 203 90 -6 17 -3 25 18 38 14 9 21 21 17 25 -5 5 -60
11 -122 13 -66 2 -118 9 -125 16 -14 14 -46 14 -69 0z"/>
<path d="M4631 13407 c-11 -28 -74 -50 -120 -41 -18 4 -37 2 -45 -6 -12 -9
-23 -9 -50 1 -32 12 -40 11 -78 -9 -36 -18 -44 -19 -51 -7 -13 23 -46 18 -59
-10 -21 -46 -57 -42 -123 13 -40 34 -124 72 -157 72 -25 0 -33 -9 -29 -32 0
-4 -14 -14 -32 -21 -56 -24 -127 -121 -127 -175 0 -36 64 -146 111 -191 28
-27 58 -69 72 -103 14 -31 36 -63 49 -72 14 -9 63 -25 109 -35 46 -10 116 -31
154 -45 120 -44 136 -41 415 72 178 72 213 90 268 137 75 65 101 148 67 218
-8 18 -47 66 -85 107 -39 41 -73 82 -76 92 -4 14 -16 17 -58 16 -41 -1 -60 4
-81 20 -36 28 -63 28 -74 -1z"/>
<path d="M0 10831 l0 -609 84 5 c75 5 89 3 141 -21 32 -14 105 -38 162 -52
122 -31 163 -25 207 27 43 51 37 102 -30 234 -31 60 -63 118 -71 127 -8 9 -12
22 -8 28 18 29 -70 65 -99 41 -17 -14 -59 4 -91 39 -23 25 -23 34 -6 270 9
125 10 174 1 204 -13 43 -105 146 -130 146 -24 0 -100 94 -100 123 0 16 -31
47 -48 47 -9 0 -12 -150 -12 -609z"/>
<path d="M0 2678 l0 -2678 44 0 c39 0 48 4 70 33 51 66 69 143 47 199 -5 13
-18 46 -30 75 l-20 51 92 -5 c158 -10 263 37 309 136 15 34 32 54 51 62 36 15
68 55 113 140 29 55 53 83 113 133 53 44 90 85 121 135 25 40 66 101 92 135
85 110 91 126 98 267 5 113 9 131 31 163 42 62 138 131 284 202 135 65 143 68
235 74 111 7 145 21 223 91 89 79 203 318 293 614 10 32 18 116 22 235 8 205
11 217 87 290 20 19 50 60 67 90 18 32 74 98 133 155 78 77 109 115 133 165
45 96 58 181 43 281 -16 105 -37 157 -91 226 -42 54 -44 55 -83 50 -61 -8
-133 24 -218 96 -170 144 -210 161 -365 152 -104 -6 -114 -5 -174 19 -35 14
-80 26 -101 26 -29 0 -47 9 -85 43 -62 55 -99 77 -204 122 -96 41 -164 57
-194 45 -25 -9 -58 2 -88 30 -12 11 -27 20 -34 20 -20 0 -54 50 -54 79 0 32
-30 100 -63 144 -14 17 -41 65 -61 105 -20 40 -43 75 -51 79 -8 3 -15 14 -15
24 0 24 -73 104 -143 157 -56 42 -215 103 -269 104 -18 0 -60 -1 -94 -3 -43
-1 -68 3 -83 13 -17 12 -30 14 -54 7 -30 -9 -34 -7 -79 43 l-48 53 0 -2677z"/>
<path d="M11862 3198 c-11 -24 -47 -71 -79 -105 -33 -34 -81 -93 -107 -132
-50 -77 -103 -121 -169 -144 -69 -24 -153 -47 -171 -47 -9 0 -20 -8 -23 -17
-4 -10 -17 -31 -29 -48 -56 -76 -79 -239 -50 -351 23 -90 20 -126 -18 -208
-63 -134 -70 -199 -35 -332 55 -212 128 -289 279 -289 120 0 206 49 255 145
41 81 216 635 251 793 20 90 38 144 70 205 53 100 55 136 20 274 -27 108 -55
168 -89 195 -14 10 -34 38 -46 61 -12 23 -26 42 -31 42 -5 0 -18 -19 -28 -42z"/>
</g>
</svg>
