<svg width="100" height="100" viewBox="0 0 100 100" fill="none" xmlns="http://www.w3.org/2000/svg">
<path d="M90.0755 55.216C86.5852 55.564 83.4279 53.5787 81.9694 50.478L77.832 50.8407L74.7085 52.3397C73.9939 52.6814 73.5134 53.3606 73.4038 54.1405C73.1087 56.2432 72.5734 58.2684 71.8294 60.1929C71.5764 60.8449 71.6207 61.5724 71.9643 62.1803L73.0771 64.1594L73.949 64.0021C75.5803 63.3816 77.4793 63.5304 79.0411 64.5724C81.6883 66.3397 82.3227 69.977 80.3542 72.5367C78.6596 74.7422 75.5086 75.348 73.1101 73.9309C71.582 73.0294 70.6589 71.5325 70.4333 69.933L69.2264 69.868L67.0681 69.6059C66.3262 69.5158 65.5885 69.7694 65.049 70.2831C63.2279 72.0084 61.1709 73.4906 58.9346 74.6772C58.1822 75.0755 57.6995 75.8407 57.6468 76.6856L57.3728 81.0336L58.7302 86.39C61.0402 87.0315 62.9497 88.8533 63.5778 91.3313C64.5263 95.0776 62.1868 98.8784 58.3719 99.7233C54.93 100.486 51.3997 98.4906 50.3058 95.1552C49.4543 92.5514 50.2362 89.8596 52.0362 88.1007L50.6725 82.7128L48.567 79.3459C48.0021 78.4424 47.0031 77.9078 45.9324 77.9099C45.926 77.9099 45.9218 77.9099 45.9155 77.9099C44.0713 77.9099 42.2671 77.7275 40.522 77.3858C39.4829 77.1803 38.4101 77.5074 37.6808 78.2726L34.8987 81.1929L31.7835 87.6206C32.5128 89.0944 32.5781 90.8743 31.8067 92.4696C30.4199 95.3292 26.8832 96.4654 24.0568 94.8847C21.6372 93.5283 20.5897 90.5346 21.6435 87.977C22.3622 86.2327 23.8524 85.0671 25.5385 84.6772L28.6726 78.2076L29.2881 73.8659C29.3998 73.065 29.092 72.2579 28.4597 71.7506C25.9664 69.738 23.8292 67.3082 22.1578 64.5661C21.7426 63.8847 20.9965 63.4717 20.1955 63.4654L15.8369 63.4235L15.5095 62.694C15.1744 65.6457 13.1426 68.2684 10.1118 69.216C6.03976 70.4906 1.70217 68.2642 0.380656 64.239C-0.940857 60.216 1.29117 55.8156 5.33158 54.4864C8.16008 53.5556 11.1319 54.3292 13.1426 56.2306L18.2074 54.6457L18.2502 54C18.2502 53.4735 18.3053 53.2082 18.2502 52.5409C18.189 51.8009 18.1574 51.0545 18.1574 50.2998C18.1574 46.1992 19.0637 42.3061 20.6824 38.8051C20.9185 38.2914 20.9122 37.7002 20.6635 37.1929L19.5675 34.9644L16.5935 32.7317C14.9285 33.2621 13.0421 33.0084 11.5414 31.8826C8.99536 29.9707 8.5654 26.304 10.6731 23.8575C12.4878 21.7506 15.6683 21.3187 17.9846 22.8659C19.46 23.8512 20.2988 25.3942 20.4337 27.0042L23.7301 29.478L27.0518 30.0671C29.4693 27.8344 32.2873 26.0252 35.3834 24.7568L36.1633 20.0441L35.179 15.1761C32.2662 14.4298 29.9014 12.2097 29.2649 9.2495C28.367 5.06711 31.2566 0.993738 35.7207 0.153067C40.1826 -0.687604 44.5287 2.0189 45.4265 6.20129C46.0989 9.33127 44.6509 12.3984 42.0079 14.0965L42.9374 18.6877L45.22 22.3103C45.3696 22.5472 45.631 22.6898 45.9113 22.6898C51.1425 22.6898 56.0366 24.1363 60.2161 26.6478C60.4458 26.7841 60.7282 26.803 60.9706 26.6898L64.5452 25.042L68.7184 20.5514C68.4676 18.9413 68.9292 17.2348 70.1285 15.9455C72.2952 13.6164 76.0047 13.5577 78.243 15.8868C80.2053 17.9308 80.2811 21.1908 78.418 23.325C77.2124 24.7065 75.482 25.3438 73.7916 25.2181L69.6184 29.7086L68.2632 33.3355C68.1683 33.587 68.2105 33.868 68.3686 34.086C70.0147 36.3334 71.3277 38.8365 72.234 41.5241C72.4848 42.2621 73.075 42.8365 73.8295 43.0483L77.2229 43.9937L81.6322 43.6059C82.7134 40.5053 85.4133 38.1594 88.7287 37.8281C93.2876 37.3732 97.2859 40.8973 97.6568 45.6981C98.0299 50.499 94.6344 54.761 90.0755 55.216Z" fill="#D8D8D8"/>
<circle cx="45.5" cy="51" r="22" fill="#CBCBCB"/>
<path fill-rule="evenodd" clip-rule="evenodd" d="M49.5 29.3628C39.2595 31.2438 31.5 40.2157 31.5 51C31.5 61.7843 39.2595 70.7562 49.5 72.6372C48.2029 72.8755 46.866 73 45.5 73C33.3497 73 23.5 63.1503 23.5 51C23.5 38.8497 33.3497 29 45.5 29C46.866 29 48.2029 29.1245 49.5 29.3628Z" fill="#C5C5C5"/>
<circle cx="41.5" cy="45" r="5" fill="#C5C5C5"/>
<circle cx="46.5" cy="60" r="4" fill="#C5C5C5"/>
<circle cx="58.5" cy="47" r="3" fill="#C5C5C5"/>
</svg>
