<svg width="25" height="24" viewBox="0 0 25 24" fill="#000" xmlns="http://www.w3.org/2000/svg">
<path fill-rule="evenodd" clip-rule="evenodd" d="M12.5 23C18.5751 23 23.5 18.0751 23.5 12C23.5 5.92487 18.5751 1 12.5 1C6.42487 1 1.5 5.92487 1.5 12C1.5 18.0751 6.42487 23 12.5 23ZM10.2257 3.28983C6.66881 4.21597 3.96801 7.26324 3.55493 11H7.55009C7.7743 8.23681 8.6991 5.58442 10.2257 3.28983ZM14.7743 3.28983C16.3009 5.58442 17.2257 8.23681 17.4499 11H21.4451C21.032 7.26324 18.3312 4.21597 14.7743 3.28983ZM15.4424 11C15.1912 8.28683 14.1697 5.70193 12.5 3.5508C10.8303 5.70193 9.80879 8.28683 9.55759 11H15.4424ZM9.55759 13H15.4424C15.1912 15.7132 14.1697 18.2981 12.5 20.4492C10.8303 18.2981 9.80879 15.7132 9.55759 13ZM7.55009 13H3.55493C3.96801 16.7368 6.66881 19.784 10.2257 20.7102C8.6991 18.4156 7.7743 15.7632 7.55009 13ZM14.7743 20.7102C16.3009 18.4156 17.2257 15.7632 17.4499 13H21.4451C21.032 16.7368 18.3312 19.784 14.7743 20.7102Z" fill="#8391A7"/>
</svg>
