<svg width="25" height="24" viewBox="0 0 25 24" fill="none" xmlns="http://www.w3.org/2000/svg">
<g clip-path="url(#clip0)">
<path fill-rule="evenodd" clip-rule="evenodd" d="M17.9013 2C17.0474 2 16.202 2.16823 15.4131 2.49507C14.6244 2.82189 13.9078 3.30089 13.3042 3.90472L12.9513 4.25761L12.5984 3.90472C11.3792 2.68549 9.72554 2.00053 8.00129 2.00053C6.27704 2.00053 4.62341 2.68549 3.40418 3.90472C2.18496 5.12395 1.5 6.77758 1.5 8.50183C1.5 9.53855 1.74764 10.5497 2.21007 11.4562C2.46104 11.9482 3.06331 12.1436 3.55528 11.8926C4.04724 11.6417 4.24262 11.0394 3.99165 10.5474C3.67141 9.91966 3.5 9.21958 3.5 8.50183C3.5 7.30801 3.97424 6.16309 4.8184 5.31893C5.66255 4.47478 6.80747 4.00053 8.00129 4.00053C9.19511 4.00053 10.34 4.47478 11.1842 5.31893L12.2442 6.37893C12.6347 6.76946 13.2679 6.76946 13.6584 6.37893L14.7184 5.31893C15.1363 4.90084 15.6326 4.56902 16.1787 4.34274C16.7248 4.11647 17.3102 4 17.9013 4C18.4924 4 19.0778 4.11647 19.6239 4.34274C20.17 4.56902 20.6661 4.90068 21.084 5.31877C21.5021 5.73666 21.8341 6.23316 22.0604 6.77926C22.2866 7.32537 22.4031 7.9107 22.4031 8.50183C22.4031 9.09295 22.2866 9.67828 22.0604 10.2244C21.8341 10.7705 21.5024 11.2667 21.0843 11.6846L12.9513 19.8176L7.8234 14.6897C7.43287 14.2992 6.79971 14.2992 6.40918 14.6897C6.01866 15.0802 6.01866 15.7134 6.40918 16.1039L12.2442 21.9389C12.6347 22.3295 13.2679 22.3295 13.6584 21.9389L22.4982 13.0991C23.1021 12.4955 23.5812 11.7787 23.908 10.99C24.2349 10.2012 24.4031 9.35568 24.4031 8.50183C24.4031 7.64797 24.2349 6.80249 23.908 6.01368C23.5813 5.22501 23.1023 4.50844 22.4986 3.90488C21.895 3.30114 21.1781 2.82186 20.3894 2.49507C19.6006 2.16823 18.7551 2 17.9013 2ZM9.72573 7.6205C9.56625 7.23387 9.18301 6.98733 8.76506 7.00249C8.3471 7.01764 7.98273 7.29129 7.85167 7.68845L6.42825 12.0018H4.95129C4.39901 12.0018 3.95129 12.4495 3.95129 13.0018C3.95129 13.5541 4.39901 14.0018 4.95129 14.0018H7.15129C7.58283 14.0018 7.96569 13.725 8.10092 13.3152L8.90555 10.877L11.1769 16.3832C11.3236 16.7389 11.6614 16.9788 12.0455 17.0003C12.4297 17.0217 12.7921 16.8209 12.9775 16.4837L14.3426 14.0018H15.9513C16.5036 14.0018 16.9513 13.5541 16.9513 13.0018C16.9513 12.4495 16.5036 12.0018 15.9513 12.0018H13.7513C13.3866 12.0018 13.0508 12.2004 12.8751 12.5199L12.2303 13.6922L9.72573 7.6205Z" fill="#8391A7"/>
</g>
<defs>
<clipPath id="clip0">
<rect width="24" height="24" fill="white" transform="translate(0.5)"/>
</clipPath>
</defs>
</svg>
