<svg width="31" height="26" viewBox="0 0 31 26" fill="none" xmlns="http://www.w3.org/2000/svg">
<path fill-rule="evenodd" clip-rule="evenodd" d="M12.6666 3.43004C12.8875 3.93623 12.6562 4.52564 12.15 4.74653C10.8026 5.33452 9.61973 6.24362 8.70484 7.39436C7.78994 8.5451 7.17087 9.90243 6.90173 11.3477C6.6326 12.793 6.72161 14.2822 7.16097 15.6851C7.60033 17.088 8.37667 18.3619 9.42211 19.3955C10.4676 20.4291 11.7503 21.1908 13.1581 21.6141C14.566 22.0375 16.0561 22.1095 17.4982 21.8238C18.9403 21.5382 20.2905 20.9037 21.4307 19.9757C22.5709 19.0477 23.4664 17.8546 24.039 16.5005C24.2541 15.9919 24.8408 15.7539 25.3495 15.969C25.8582 16.1841 26.0962 16.7708 25.8811 17.2795C25.1813 18.9344 24.0867 20.3927 22.6931 21.5269C21.2995 22.6611 19.6493 23.4366 17.8868 23.7857C16.1242 24.1348 14.3029 24.0468 12.5822 23.5294C10.8615 23.0121 9.29377 22.081 8.016 20.8178C6.73823 19.5545 5.78937 17.9975 5.25238 16.2828C4.71538 14.5681 4.60659 12.748 4.93553 10.9816C5.26447 9.21513 6.02112 7.55616 7.13933 6.1497C8.25753 4.74324 9.70325 3.63212 11.3501 2.91347C11.8563 2.69258 12.4457 2.92385 12.6666 3.43004Z" fill="#8391A7"/>
<path fill-rule="evenodd" clip-rule="evenodd" d="M15.0429 2.29289C15.2305 2.10536 15.4848 2 15.75 2C17.1946 2 18.625 2.28452 19.9596 2.83733C21.2941 3.39013 22.5068 4.20038 23.5282 5.22183C24.5497 6.24327 25.3599 7.4559 25.9127 8.79048C26.4655 10.1251 26.75 11.5555 26.75 13C26.75 13.5523 26.3023 14 25.75 14H15.75C15.1978 14 14.75 13.5523 14.75 13V3C14.75 2.73478 14.8554 2.48043 15.0429 2.29289ZM16.75 4.05573V12H24.6943C24.6006 11.1614 24.3891 10.3385 24.065 9.55585C23.6127 8.46392 22.9497 7.47177 22.114 6.63604C21.2783 5.80031 20.2861 5.13738 19.1942 4.68508C18.4115 4.3609 17.5886 4.14949 16.75 4.05573Z" fill="#8391A7"/>
</svg>
