<svg width="25" height="24" viewBox="0 0 25 24" fill="none" xmlns="http://www.w3.org/2000/svg">
<path fill-rule="evenodd" clip-rule="evenodd" d="M9.66657 2.43004C9.88746 2.93623 9.65618 3.52564 9.15 3.74653C7.80259 4.33452 6.61973 5.24362 5.70484 6.39436C4.78994 7.5451 4.17087 8.90243 3.90173 10.3477C3.6326 11.793 3.72161 13.2822 4.16097 14.6851C4.60033 16.088 5.37667 17.3619 6.42211 18.3955C7.46756 19.4291 8.75028 20.1908 10.1581 20.6141C11.566 21.0375 13.0561 21.1095 14.4982 20.8238C15.9403 20.5382 17.2905 19.9037 18.4307 18.9757C19.5709 18.0477 20.4664 16.8546 21.039 15.5005C21.2541 14.9919 21.8408 14.7539 22.3495 14.969C22.8582 15.1841 23.0962 15.7708 22.8811 16.2795C22.1813 17.9344 21.0867 19.3927 19.6931 20.5269C18.2995 21.6611 16.6493 22.4366 14.8868 22.7857C13.1242 23.1348 11.3029 23.0468 9.58224 22.5294C7.86153 22.0121 6.29377 21.081 5.016 19.8178C3.73823 18.5545 2.78937 16.9975 2.25238 15.2828C1.71538 13.5681 1.60659 11.748 1.93553 9.98156C2.26447 8.21513 3.02112 6.55616 4.13933 5.1497C5.25753 3.74324 6.70325 2.63212 8.35008 1.91347C8.85627 1.69258 9.44568 1.92385 9.66657 2.43004Z" fill="#8391A7"/>
<path fill-rule="evenodd" clip-rule="evenodd" d="M12.0429 1.29289C12.2305 1.10536 12.4848 1 12.75 1C14.1946 1 15.625 1.28452 16.9596 1.83733C18.2941 2.39013 19.5068 3.20038 20.5282 4.22183C21.5497 5.24327 22.3599 6.4559 22.9127 7.79048C23.4655 9.12506 23.75 10.5555 23.75 12C23.75 12.5523 23.3023 13 22.75 13H12.75C12.1978 13 11.75 12.5523 11.75 12V2C11.75 1.73478 11.8554 1.48043 12.0429 1.29289ZM13.75 3.05573V11H21.6943C21.6006 10.1614 21.3891 9.33849 21.065 8.55585C20.6127 7.46392 19.9497 6.47177 19.114 5.63604C18.2783 4.80031 17.2861 4.13738 16.1942 3.68508C15.4115 3.3609 14.5886 3.14949 13.75 3.05573Z" fill="#8391A7"/>
</svg>
